<?xml version="1.0" encoding="UTF-8"?>
<svg id="Tool_box" data-name="Tool box" xmlns="http://www.w3.org/2000/svg" version="1.1" viewBox="0 0 433.34 402.67">
  <defs>
    <style>
      .cls-1 {
        stroke-width: 0px;
      }

      .cls-1, .cls-2 {
        fill: #000000;
      }

      .cls-2 {
        font-family: Gilroy-Black, Gilroy-Black;
        font-size: 69.58px;
        font-weight: 800;
      }
    </style>
  </defs>
  <path class="cls-1" d="M319.57,258.41c9.09-1.77,17.7-5.12,25.54-10.1,25.58-16.22,29.68-40.74,17.15-67.87-10.37-22.44-27.33-39.67-46.41-54.73-46.73-36.87-99.94-59.2-158.58-68.47-25.48-4.03-51.04-4.46-76.39,1.86-14.52,3.62-23.7,8.59-37.71,21.16-.63-8.34,6.57-21.19,15.48-27.91,16.63-12.56,36-15.9,56.06-16.3,32.66-.66,64.25,5.91,95.19,15.67,42.53,13.42,82.23,32.65,117.66,59.98,22.98,17.72,43.62,37.73,55.9,64.69,6.73,14.78,9.72,30.11,2.79,45.87-6.12,13.92-17.27,22.44-30.76,28.38-11.22,4.94-23.06,7.54-35.15,9.02-2.02.25-3.48.86-4.62,2.43-15.04,20.81-36.7,28.64-61.08,31.16-7.82.81-15.64.77-23.45.11-16.94-1.44-33.89-2.35-50.89-1.46-1.3.07-3.31.8-3.55-1.5-.15-1.39,1.11-2.05,2.34-2.08,7.82-.2,8.66-5.98,9.35-11.76.38-3.13.52-6.31.56-9.47.14-11.33.23-22.65.23-33.98,0-1.28,1.19-3.58-2-3.3-15.64,1.39-31.28.3-46.91-.2-11.83-.38-23.64-.46-35.47-.02-1,.04-2.04.19-2.99-.04-1.67-.4-4.52.58-4.75-1.52-.3-2.67,2.68-1.71,4.21-2,3.74-.7,5.76-2.72,6.71-6.4,1.99-7.7,1.76-15.56,1.78-23.35.1-32.48.01-64.97-.19-97.45-.06-9.63-1.88-11.45-11.16-13.45-1.33-.29-3.71.15-3.49-1.83.22-2.01,2.64-1.66,4.19-1.66,11.66,0,23.32.12,34.98.19,3.83.02,7.66-.07,11.48,0,1.1.02,2.59.01,2.66,1.59.07,1.68-1.46,1.62-2.55,1.68-9.56.54-10.85,5.07-10.94,13.41-.36,33.98-.75,67.97.16,101.94.4,14.89,3.71,17.8,18.61,18.59,6.82.36,13.66.48,20.47-.28,9.72-1.08,15.26-7.24,15.23-16.99-.05-14.16-.03-28.32-.4-42.47-.22-8.49-1.89-10.02-10.34-12.01-1.5-.35-4.03-.2-3.78-2.34.25-2.16,2.7-1.43,4.21-1.36,22.48,1.08,44.97-.58,67.44.07,14.52.42,28.95,1.72,42.52,7.49,24.33,10.34,37.12,29.34,40.39,55.08,2.16,17.01-1.01,33.14-9.05,48.31-.5.95-1.52,1.85-.69,3.61ZM214.09,212.52c.09,18.63-.61,37.28.72,55.88.67,9.42,3.51,12.39,12.78,14.38,13.6,2.92,27.17,2.29,40.41-1.79,16.57-5.1,27.81-15.85,32.44-32.83,3.73-13.69,4.25-27.63,1.76-41.55-2.17-12.15-6.97-23.29-15.78-32.22-17.88-18.1-40.22-22.84-64.59-20.79-7.64.64-7.71,1-7.73,8.49-.04,16.81-.01,33.61-.01,50.42Z"/>
  <path class="cls-1" d="M162.7,6.17c20.21,4.79,40.29,10.01,59.81,17.19,45.66,16.8,88.33,39.09,126.68,69.26.65.51,1.42.85,2.13,1.27.65,1.34,1.8,2.07,3.16,2.54,17.69,15.43,34.8,31.41,48.24,50.86,2.26,3.27,4.5,6.54,6.74,9.82.56,2.04,1.64,3.79,2.99,5.39.19.26.38.52.56.79.45.82.89,1.64,1.33,2.46,1.09,2.45,2.18,4.89,3.27,7.34-.08.89.2,1.63.9,2.2.01,1.07.11,2.1,1.09,2.8,1.07,3.65,2.13,7.29,3.2,10.94.13.67.26,1.34.39,2.02-.28,2.07.15,4.04.8,5.99-.02,4.34-.05,8.68-.07,13.03-.3,1.68-.6,3.37-.9,5.05-.32,1.37-.63,2.74-.95,4.11-.27.57-.53,1.15-.8,1.72-1.6,3.28-3.19,6.56-4.79,9.84-.42.72-.84,1.44-1.26,2.15-.24.3-.48.6-.72.9-1.41,1.63-2.82,3.27-4.23,4.9l.23.31s-.2-.33-.2-.33c-.35.35-.69.71-1.04,1.06,0,0,.26.13.26.13,0,0-.23-.17-.23-.17-.91.41-1.71.93-2.08,1.92.09.09.17.17.26.26-.09-.09-.18-.17-.27-.25-2.12,1.66-4.23,3.33-6.35,4.99,0,0-.28.17-.28.17-1.14.68-2.28,1.37-3.42,2.05-18.35,10.26-38.3,13.75-59.17,13.35,5.39-1.25,10.84-2.27,16.15-3.79,12.14-3.48,23.48-8.68,32.24-18.08,15.89-17.05,16.15-36.69,8.66-57.32-7.61-20.94-21.08-38.01-36.41-53.69-26.92-27.54-58.54-48.57-92.76-65.84-30.13-15.21-61.56-26.94-94.58-34.17-28.3-6.2-56.83-9.43-85.75-5.21-12.74,1.86-24.99,5.46-36.27,11.94-23.02,13.24-31.7,38.63-22.04,64.87,2.58,7.01,5.25,14.01,9.67,20.15-.04,1.07-.09,2.14-.13,3.21l-5.91-7.25c-1-2.06-1.95-4.15-3.88-5.56-4.91-9.34-10.99-18.13-14.04-28.35-1.36-4.58-3.1-9.13-3.24-14.01-.08-.99-.16-1.98-.23-2.97-.05-3.36-.1-6.71-.14-10.07.23-2,.47-3.99.7-5.99.69-1.18.88-2.47.78-3.81.09-.12.27-.26.25-.35-.06-.28-.2-.54-.31-.8.79-1.75,1.57-3.51,2.36-5.26,4.99-10.21,12.79-17.91,21.87-24.47,0,0-.06.05-.06.05.53-.3,1.07-.6,1.6-.9,0,0,.2-.11.2-.11.58-.32,1.16-.65,1.74-.97,9.53-4.88,19.55-8.36,30.12-10.07,7.35-1.19,14.75-2.08,22.13-3.1,1.67-.07,3.33-.14,5-.21,1.01-.02,2.01-.04,3.02-.07,6.68.12,13.35.23,20.03.35,5.31.47,10.61.94,15.92,1.41,1.34.16,2.68.31,4.02.47,1.3.95,2.78.8,4.26.71.58.08,1.17.15,1.75.23,1.68.22,3.35.45,5.03.67.97.16,1.94.31,2.91.47,2.04.83,4.15,1.28,6.37,1.12,1.1.9,2.39.82,3.68.74Z"/>
  <text class="cls-2" transform="translate(0 383.4)"><tspan x="0" y="0">INVERSIONES</tspan></text>
</svg>